<svg width="512" height="512" viewBox="0 0 512 512" fill="none" xmlns="http://www.w3.org/2000/svg">
<path d="M10.4727 118.909C3.49091 123.127 0 129.818 0 138.982C0 143.2 0.872727 148.437 2.03636 150.618C4.65455 155.418 240.873 391.346 245.382 393.673C249.455 395.709 262.545 395.709 266.618 393.673C271.127 391.346 507.345 155.418 509.964 150.618C511.127 148.437 512 143.2 512 138.982C512 124.873 503.127 116 489.018 116C484.8 116 479.855 116.727 478.109 117.6C476.364 118.473 425.6 168.364 365.527 228.582L256 337.818L146.618 228.582C86.4 168.364 35.6364 118.473 33.8909 117.6C28.6545 114.982 15.8545 115.709 10.4727 118.909Z" fill="black"/>
</svg>
