<svg width="512" height="512" viewBox="0 0 512 512" fill="none" xmlns="http://www.w3.org/2000/svg">
<g clip-path="url(#clip0_26_35)">
<path d="M485 79.5999C482.7 80.5999 429.2 133.4 329.3 233.3L177 385.5L102.8 311.3C36.4 245.1 28.1 237.1 24.7 236.4C15.1 234.7 5.80004 238.6 2.00004 246C-0.199963 250.4 -0.699963 259 1.00004 263.7C2.60004 267.9 163.5 428.7 168.5 431.1C173.7 433.5 181.1 433.5 185.8 431.1C190.7 428.5 509.6 109.4 511 105.7C512.8 100.6 512.2 91.8999 509.7 87.7999C504.5 79.1999 494 75.6999 485 79.5999Z" fill="black"/>
</g>
<defs>
<clipPath id="clip0_26_35">
<rect width="512" height="512" fill="white"/>
</clipPath>
</defs>
</svg>
