<svg width="512" height="512" viewBox="0 0 512 512" fill="none" xmlns="http://www.w3.org/2000/svg">
<g clip-path="url(#clip0_14_21)">
<path d="M13.2003 2.60018C4.50032 6.90018 0.000325322 14.7002 0.000325322 25.2002C0.000325322 29.3002 0.700325 33.1002 2.10033 36.0002C3.60033 39.5002 27.9003 64.3002 111.8 148.2L219.5 256L111.4 364.2C-8.69967 484.5 -0.599675 475.4 0.200325 488.8C0.900325 502.3 9.70032 511.1 23.2003 511.8C36.6003 512.6 27.5003 520.7 147.8 400.6L256 292.5L364.3 400.6C484.5 520.7 475.4 512.6 488.8 511.8C502.3 511.1 511.1 502.3 511.8 488.8C512.6 475.4 520.7 484.5 400.6 364.3L292.5 256L400.6 147.7C520.7 27.5002 512.6 36.6002 511.8 23.2002C511.1 9.70018 502.3 0.900177 488.8 0.200177C475.4 -0.599823 484.5 -8.6998 364.2 111.4L256 219.5L148.2 111.8C64.3003 27.9002 39.5003 3.60018 36.0003 2.10018C29.3003 -0.999823 19.9003 -0.699823 13.2003 2.60018Z" fill="black"/>
</g>
<defs>
<clipPath id="clip0_14_21">
<rect width="512" height="512" fill="white"/>
</clipPath>
</defs>
</svg>
