<svg width="683" height="683" viewBox="0 0 683 683" fill="none" xmlns="http://www.w3.org/2000/svg">
<g clip-path="url(#clip0_3_2)">
<path d="M288.667 1.60002C228.933 8.26669 168 34.1334 120.267 72.8C107.067 83.6 83.8667 106.933 72.6667 120.667C33.0667 169.467 8.13334 229.067 1.46667 290.933C-0.533325 309.333 -0.399992 348.8 1.86667 366.667C6.53334 404.133 16.9333 438.667 33.4667 472.133C66 537.467 117.333 588.933 182 620.667C206.667 632.8 223.2 638.933 246.667 644.8C277.867 652.533 290 653.867 330 654.133L366 654.267L400 660.4C476.667 674.4 543.6 680.8 626.933 682.267L674.4 683.067L678.533 678.933C684.267 673.2 684.4 664.667 678.8 658.4L674.933 654L635.067 653.067C571.733 651.6 518 647.733 466.267 640.667C452.667 638.8 440.533 637.333 439.2 637.333C435.067 637.333 438.667 635.333 454.933 628.8C529.733 598.267 596.133 532.533 627.733 457.467C647.6 410.533 656 366 654.267 316C653.333 288.933 650.933 271.733 644.8 246.667C638.933 223.2 632.8 206.667 620.667 182C572.133 83.2 476.933 15.6 366.667 1.86669C349.867 -0.266642 306 -0.399976 288.667 1.60002ZM361.333 31.2C451.867 42.1334 531.2 92.8 580.667 171.333C601.2 203.867 615.867 244.4 622.133 285.6C625.333 306.533 625.333 347.2 622.133 368C610.667 442.933 574 508.933 518.4 554.933C474.8 591.2 425.2 613.333 368 622.133C347.2 625.333 306.533 625.333 285.6 622.133C219.467 612.133 163.333 583.6 116.667 536.8C107.067 527.2 94.9333 513.6 89.7333 506.667C-0.799992 385.6 11.4667 220.4 118.8 115.067C135.2 98.9334 145.333 90.8 163.467 78.6667C221.333 40.2667 293.2 23.0667 361.333 31.2Z" fill="black"/>
<path d="M312.4 57.2C290.267 60.8 272.133 70.1333 256 86.5333C236.533 106.267 227.6 127.733 227.467 155.333C227.333 173.467 230.133 186.4 237.333 200.533L242.533 210.933L237.733 205.467C235.2 202.4 229.333 197.2 224.667 194C181.2 162.933 122.533 169.733 88.2667 209.733C80 219.333 70.5333 238.133 67.3333 251.2C64.5333 262.933 64.4 284.4 67.2 296.267C75.6 332.667 102.533 361.067 138 370.8C149.333 373.867 170.933 374.933 182.667 372.933L188.667 372L180.267 376.533C160.8 387.2 146.533 401.733 137.2 420.667C129.333 436.667 127.333 445.867 127.467 465.333C127.467 484.667 129.6 493.867 137.333 510C160 556.933 216.8 577.733 266.4 557.067C287.867 548.133 306.133 530.533 316.667 508.667C322.267 497.067 326.533 482.267 326.8 473.067C326.933 470.667 327.6 472.8 328.133 478C332.267 510.8 352.8 539.733 382 554.133C398.533 562.267 408.267 564.533 426 564.667C445.333 564.667 455.067 562.533 472 554.267C484.267 548.4 487.6 546 498.133 535.333C508.533 525.067 511.2 521.333 516.4 510.667C519.867 503.733 523.6 493.733 524.8 488.667C528 475.467 527.733 453.067 524.267 439.867C516.933 412.267 498.267 388.8 474 376.533L464.667 371.733L471.333 372.933C481.867 374.667 502.4 374 513.333 371.467C547.333 363.733 574.667 337.6 585.6 302.667C588.267 294 588.667 290 588.533 273.333C588.533 255.333 588.267 253.2 584.4 242.4C579.2 227.333 573.467 218 562.267 205.867C551.333 194.133 537.6 185.2 521.6 179.467C510.533 175.467 509.2 175.333 489.333 175.333C470.267 175.467 467.867 175.733 458 179.067C444.267 183.867 431.467 191.467 421.2 201.067L412.933 208.667L416.4 202C423.333 188 425.6 178.933 426.267 160.667C426.933 146 426.533 141.467 424.267 132.667C415.2 96.8 386.267 67.4666 352 59.3333C341.333 56.8 321.6 55.7333 312.4 57.2ZM345.467 88.8C357.6 92.4 367.333 98.2666 376.267 107.067C386 116.8 392.4 128 395.333 140.133C398 151.867 398 155.2 395.067 154.267C365.6 144.8 352.133 142.533 326.933 142.533C302.4 142.533 279.067 146.533 259.333 154.133C256.4 155.333 256.667 146.267 260 135.6C266.4 114.8 285.333 96 306.4 89.2C316.267 86.1333 335.467 85.8667 345.467 88.8ZM352.667 174C366.667 176.533 384.667 181.733 389.333 184.667C394 187.467 371.333 212.8 358.667 218.933C337.867 229.2 317.2 229.2 296.267 219.067C285.2 213.6 273.067 202.667 267.2 192.667C263.733 186.8 263.733 186.133 265.867 184.667C269.333 182.133 288.667 176.133 300 174.133C313.6 171.6 339.6 171.6 352.667 174ZM179.067 205.733L185.333 207.333L177.467 217.867C163.733 236.133 152.133 261.067 146.8 283.867C143.467 297.733 140.8 326.267 141.867 334.933L142.8 341.2L136.133 338.533C132.533 336.933 126 332.933 121.733 329.467C95.8667 308.533 87.4667 273.867 101.467 244.533C115.333 215.2 148.8 198.533 179.067 205.733ZM505.067 206C517.867 209.067 528.933 215.333 538.8 225.2C573.333 259.733 563.6 315.6 519.067 337.867L512 341.333V325.067C512 305.6 509.6 289.467 503.867 271.333C498.8 254.933 486.4 230.533 476.533 217.467C472.533 212 469.467 207.467 469.733 207.2C470 206.933 472.533 206.133 475.467 205.467C483.467 203.6 495.733 203.867 505.067 206ZM400.133 229.067C392.4 244.4 390 254.933 390 274C390.133 293.6 392 302.667 399.333 318.133C408.667 337.6 424.4 353.6 443.6 363.467C451.733 367.733 452.133 368 447.333 367.067C444.4 366.533 434.533 366 425.333 366C410.533 366 407.333 366.4 396.933 369.867C370.267 378.533 348.667 397.467 337.2 422C331.333 434.667 328 447.2 327.867 458.133L327.6 466L326.533 456.267C323.467 429.467 313.067 408.667 294.667 391.467C274.533 372.933 250.4 364.4 222.133 365.733C214 366.133 206.133 366.8 204.667 367.333C203.2 367.733 206.8 365.6 212.667 362.533C220.4 358.267 226.667 353.467 235.467 344.667C245.867 334.4 248.533 330.667 253.733 320C263.467 300 266.933 280.533 264.133 261.2C262.4 249.467 257.467 234.267 252.933 226.667L250.133 222L256.8 228C270.533 240.667 287.6 250 304 253.867C315.6 256.667 339.333 256.667 350.533 253.867C368.267 249.467 392.533 235.333 400.4 224.667C404.4 219.333 404.267 220.8 400.133 229.067ZM451.333 234C466 253.6 476.4 277.467 480.667 301.867C482.8 314.533 483.333 339.467 481.467 342.4C480 344.8 466.4 341.467 457.333 336.533C442.8 328.667 432.8 318 426 303.333C417.333 284.8 417.333 264.667 425.867 246C430.533 235.867 440.667 222.133 442.667 223.333C443.2 223.733 447.2 228.533 451.333 234ZM218.667 230.267C224.8 237.2 231.2 249.733 233.2 258.667C235.2 267.2 234.933 283.467 232.667 291.867C226.267 316 206.533 335.6 181.867 342C177.6 343.067 173.6 344 172.933 344C170.533 344 172.933 301.6 175.867 290.267C179.2 277.6 185.467 261.733 191.067 252C197.867 239.867 209.867 224 212.133 224C212.667 224 215.6 226.8 218.667 230.267ZM250 399.2C280 410.133 299.733 440.267 296.667 470.933L295.733 479.733L287.2 477.333C258.133 468.933 238.533 457.467 218 436.8C210.533 429.333 201.867 419.067 198.4 414L192.267 404.667L198.4 401.6C212.667 394.133 233.467 393.2 250 399.2ZM448.133 398.667C452.933 400 457.867 402.133 459.2 403.067C461.733 404.933 461.467 405.333 455.6 414.267C437.867 440.8 408.4 463.733 378.667 473.733C373.2 475.6 366.4 477.6 363.733 478L358.933 478.933L357.867 472.667C355.867 458.667 360.8 438.667 369.333 426C379.067 411.867 398.667 398.933 414.8 396.133C424.4 394.4 437.733 395.333 448.133 398.667ZM490 433.467C494.8 442.933 497.333 453.867 497.333 465.333C497.333 484.133 491.2 499.2 477.867 513.333C464 528 447.467 535.2 427.867 534.933C407.733 534.8 392.267 528.4 377.733 514.267L370.8 507.467L381.733 504.4C395.733 500.4 424.667 486.133 436.667 477.067C449.6 467.6 470 446.667 477.867 435.067C481.467 429.733 484.933 425.733 485.6 426.133C486.133 426.533 488.267 429.867 490 433.467ZM174 448.933C184.667 469.333 200.133 493.067 217.867 516.533C232.133 535.467 232.267 536.667 220.667 535.2C210 534 204 532.133 194 526.933C162.8 510.533 148.933 473.333 161.467 439.6C163.067 435.467 164.533 432 164.667 432C164.933 432 169.067 439.6 174 448.933ZM269.333 503.2L283.333 507.733L275.867 515.067C263.333 527.333 264.933 527.733 249.867 508.533C242.533 499.333 236.267 491.067 235.733 490.267C235.333 489.333 239.467 490.933 245.067 493.733C250.8 496.4 261.6 500.8 269.333 503.2Z" fill="black"/>
</g>
<defs>
<clipPath id="clip0_3_2">
<rect width="682.667" height="682.667" fill="white"/>
</clipPath>
</defs>
</svg>
