<svg width="683" height="683" viewBox="0 0 683 683" fill="none" xmlns="http://www.w3.org/2000/svg">
<g clip-path="url(#clip0_3_6)">
<path d="M94.9333 2.66667C86.3999 7.86667 85.3333 11.4667 85.3333 34.9333V56H78.3999C42.5333 56.1333 8.53326 83.2 1.33326 117.333C0.266591 122.667 -7.52458e-05 179.333 0.266591 331.333L0.666591 538L4.53326 547.333C12.3999 566.267 24.1333 579.6 41.0666 588.4C58.5333 597.6 54.7999 597.333 167.467 597.333H268.933L273.333 594.267C286 585.867 286.4 567.2 274.267 558.133C270.533 555.333 269.467 555.333 170.933 554.667L71.3333 554L63.7333 550.267C55.1999 546.133 50.2666 540.933 46.1333 532L43.3333 526V328.667C43.3333 160.533 43.5999 130.4 45.1999 124.667C49.1999 111.067 64.9333 100 80.2666 100H85.3333V114.133C85.3333 126.267 85.7333 129.067 88.1333 132.933C93.8666 142.267 108 145.467 117.733 139.6C126.533 134.267 128 130.667 128 114.267V100H174H220V113.867C220 129.333 221.733 133.733 230.667 139.733C234.533 142.4 236.533 142.8 243.067 142.4C257.867 141.333 264 132.533 264 112.4V100H309.333H354.667V112.4C354.667 132.533 360.8 141.333 375.6 142.4C382.133 142.8 384.133 142.4 388 139.733C396.933 133.733 398.667 129.333 398.667 113.6V99.6L406.4 100.267C416.133 101.2 426.4 106.267 431.867 112.933C439.867 122.667 440 123.6 440 192.533C440 250.933 440.267 255.733 442.533 260.8C446.267 269.067 452.267 272.667 462.267 272.667C471.2 272.667 475.333 270.533 480.533 263.467C483.2 259.867 483.333 258 483.733 193.6C484 148.533 483.6 124.8 482.667 119.333C480.133 106 471.733 90.4 461.6 80.1333C447.067 65.4666 430.933 58.1333 410.133 56.5333L398.667 55.6V35.7333C398.667 13.0667 397.067 7.86667 388.667 2.66667C384.667 0.133332 382.4 -0.266668 375.333 0.266666C368 0.666666 366.133 1.33333 362.533 4.66667C355.6 11.2 354.667 15.2 354.667 36.6667V56H309.467H264.133L263.733 34.8C263.333 11.2 262.667 9.33333 253.333 2.93333C247.067 -1.33333 235.733 -1.2 229.2 3.2C221.2 8.66667 220 12.9333 220 35.8667V56H174H128V34.9333C128 16.4 127.733 13.4667 125.333 9.6C121.333 3.2 115.333 -1.14445e-06 106.667 -1.14445e-06C101.733 -1.14445e-06 97.8666 0.799999 94.9333 2.66667Z" fill="black"/>
<path d="M98.6666 228.133C90.2666 231.467 85.3333 239.467 85.3333 249.467C85.3333 258.133 89.0666 264.4 96.1333 268C101.067 270.533 104.267 270.667 170.933 270.667H240.667L245.733 267.6C253.2 263.067 256 258.133 256 249.2C256 240.933 253.067 235.2 246.267 230.133C242.533 227.333 241.2 227.333 172.267 227.067C127.333 226.933 100.8 227.333 98.6666 228.133Z" fill="black"/>
<path d="M476.267 313.333C394.8 323.6 330.533 384 315.067 464.667C311.6 482.667 312 516.4 315.733 534.267C324 573.067 341.2 604.133 369.733 631.6C396.4 657.467 430.933 674.8 466.933 680.667C483.067 683.2 513.6 683.2 528.8 680.667C606.4 667.333 667.333 606.4 680.666 528.8C683.2 513.6 683.2 483.067 680.666 466.933C674.8 430.933 657.466 396.4 631.6 369.733C604 341.2 572.4 323.733 534.4 316C518.8 312.8 490.8 311.6 476.267 313.333ZM526 359.2C581.733 370.933 624.933 414.667 636.533 470.933C639.333 484.267 639.333 509.733 636.533 524C619.6 613.867 521.6 664.4 439.2 626C423.733 618.8 412.4 611.2 400.8 600.133C342.533 544.667 341.6 453.467 398.667 397.333C420.4 376 447.867 362.4 479.333 357.333C489.733 355.733 514.267 356.667 526 359.2Z" fill="black"/>
<path d="M488 400.267C476.8 406 476.667 406.4 476.267 443.333L475.867 475.867L443.333 476.267C413.067 476.667 410.667 476.8 407.067 479.467C402.4 482.8 397.333 492.533 397.333 498.133C397.333 504.933 402.667 513.467 409.333 516.933C414.8 519.867 416.267 520 445.6 520H476V550.667C476 578.667 476.267 581.867 478.667 586.533C485.867 600.8 506.4 601.333 516.533 587.6C519.2 584 519.333 581.867 519.733 552L520.133 520.133L552 519.733C587.333 519.333 587.6 519.2 594.4 509.333C598.4 503.333 598.533 492.133 594.533 485.733C588.933 476.8 585.333 476 550.667 476H520V445.6C520 416.267 519.867 414.8 516.933 409.333C513.467 402.667 504.933 397.333 498.133 397.333C495.733 397.333 491.2 398.667 488 400.267Z" fill="black"/>
<path d="M94.9333 344C88.5333 348 85.3333 354 85.3333 362.667C85.3333 371.333 88.5333 377.333 94.9333 381.333C99.1999 383.867 101.867 384 198 384H296.667L301.467 380.8C313.733 372.4 313.733 352.933 301.467 344.533L296.667 341.333H198C101.867 341.333 99.1999 341.467 94.9333 344Z" fill="black"/>
</g>
<defs>
<clipPath id="clip0_3_6">
<rect width="682.667" height="682.667" fill="white"/>
</clipPath>
</defs>
</svg>
