<svg width="512" height="512" viewBox="0 0 512 512" fill="none" xmlns="http://www.w3.org/2000/svg">
<g clip-path="url(#clip0_14_12)">
<path d="M246.2 2.09995C243.7 3.39995 240.7 5.99995 239.2 8.29996L236.5 12.4L236.2 124.2L236 236H125.3H14.6L10.2 238.1C7.6 239.4 4.8 241.9 3.2 244.3C0.9 247.8 0.5 249.4 0.5 256C0.5 262.6 0.9 264.2 3.2 267.7C4.8 270.1 7.6 272.6 10.2 273.9L14.6 276H125.3H236V386.7V497.4L238.1 501.8C239.4 504.4 241.9 507.2 244.3 508.8C247.8 511.1 249.4 511.5 256 511.5C262.6 511.5 264.2 511.1 267.7 508.8C270.1 507.2 272.6 504.4 273.9 501.8L276 497.4V386.7V276H386.7H497.4L501.8 273.9C504.4 272.6 507.2 270.1 508.8 267.7C511.1 264.2 511.5 262.6 511.5 256C511.5 249.4 511.1 247.8 508.8 244.3C507.2 241.9 504.4 239.4 501.8 238.1L497.4 236H386.7H276V125.3V14.6L273.9 10.2C270.8 3.79995 265.4 0.599954 257.1 0.199954C251.8 -4.57317e-05 249.6 0.299954 246.2 2.09995Z" fill="black"/>
</g>
<defs>
<clipPath id="clip0_14_12">
<rect width="512" height="512" fill="white"/>
</clipPath>
</defs>
</svg>
