<svg width="18" height="18" viewBox="0 0 512 512" fill="none" xmlns="http://www.w3.org/2000/svg">
<g clip-path="url(#clip0_14_9)">
<path d="M182.5 2.00006C135.8 9.20006 94.7999 30.0001 61.4999 63.5001C27.1999 97.9001 6.8999 139.2 0.999902 187C-0.300098 197.9 -0.300098 226.1 0.999902 237C4.7999 267.4 15.5999 298.3 31.2999 323C48.5999 350.5 74.8999 376.4 102.1 392.8C129.1 409 158.9 419.2 190 423C202.8 424.5 231.2 424.2 244.2 422.4C281.5 417.2 315.3 403.7 344.2 382.4C347.6 380 350.7 378.1 351.1 378.2C351.5 378.4 381.6 407.7 418 443.5C454.4 479.2 485.5 509.3 487.3 510.2C494.1 514 504.9 511.7 509.2 505.7C511.8 502 512.8 493.3 511 489C510.1 486.7 416.8 393.7 379.6 357.9L375.7 354.1L381.9 346.8C396.1 330.2 411.6 303.3 418.9 282.6C437.7 229.3 434.6 171 410.5 121.2C399.4 98.3001 386.9 80.8 368.2 62.2C334.3 28.4 289.6 6.90006 241 1.00006C227.3 -0.599939 196.3 -0.0999391 182.5 2.00006ZM230.3 34.0001C307.5 40.4001 371.6 93.7001 391.3 168C395.3 183.2 396.5 193.2 396.5 212C396.5 230.8 395.3 240.8 391.3 256C382.9 287.5 367.6 314.2 344.4 337.4C295.6 386.3 222.6 403.2 156.7 380.9C104.7 363.3 62.7999 322.7 44.6999 272.5C26.1999 221.2 31.7999 165.3 59.9999 119.8C92.9999 66.7 149.6 34.7 213.5 33.2C216.3 33.1 223.8 33.5001 230.3 34.0001Z" fill="black"/>
</g>
<defs>
<clipPath id="clip0_14_9">
<rect width="512" height="512" fill="white"/>
</clipPath>
</defs>
</svg>
