<svg width="683" height="683" viewBox="0 0 683 683" fill="none" xmlns="http://www.w3.org/2000/svg">
<g clip-path="url(#clip0_3_13)">
<path d="M258.4 3.19993C244.933 8.79993 235.733 17.9999 230 31.9999C228 36.7999 227.333 42.5333 226.933 61.5999L226.4 85.3333H160.267C106.4 85.3333 92.6668 85.7333 86.6668 87.3333C59.6001 94.5333 38.0001 116 30.6668 142.8C28.1334 152.533 27.8668 156 28.2668 191.2C28.6668 234.267 28.6668 233.867 40.0001 239.6C45.3334 242.4 47.7334 242.667 65.6001 242.667H85.3334L85.6001 432.933L86.0001 623.333L89.8668 632.667C98.0001 652.267 110 665.467 128.267 674.667C133.867 677.467 141.733 680.4 145.6 681.2C150.533 682.267 209.333 682.667 345.333 682.4L538 682L547.333 678.133C566.267 670.267 579.6 658.267 588.667 641.2C597.867 623.6 597.333 636.667 597.333 429.733V242.667H617.067C634.933 242.667 637.333 242.4 642.667 239.6C654.133 233.733 654 234.667 654 188.933C654 151.067 653.867 148.133 651.067 139.333C645.333 120.933 630.267 103.067 613.467 94.1333C596.8 85.4666 595.6 85.3333 522.267 85.3333H456.267L455.733 61.4666L455.333 37.5999L450 27.1999C443.733 15.0666 435.333 7.19993 423.467 2.79993C416.133 0.133265 414 -6.81462e-05 340.933 -6.81462e-05H266L258.4 3.19993ZM410.133 45.8666C411.467 47.8666 412 53.0666 412 66.9333V85.3333H341.333H270.667V66.9333C270.667 48.2666 271.333 45.3333 276 43.5999C277.067 43.1999 307.333 42.9333 343.067 43.0666C405.867 43.3333 408.267 43.4666 410.133 45.8666ZM589.333 131.467C597.2 135.067 603.6 141.6 607.467 150C610.4 156.133 610.667 158.533 610.667 177.6V198.667H341.333H72.0001V177.6C72.0001 158.533 72.2668 156.133 75.2001 150C80.5334 138.4 89.3334 131.333 101.2 129.333C104.533 128.8 214.4 128.4 345.333 128.533L583.333 128.667L589.333 131.467ZM554.4 426.933C554 610.8 554 611.333 551.2 617.333C547.067 626.267 542.133 631.467 533.6 635.6L526 639.333H341.333C156.8 639.333 156.667 639.333 150.667 636.533C141.733 632.4 136.533 627.467 132.4 618.933L128.667 611.333L128.267 426.933L128 242.667H341.333H554.667L554.4 426.933Z" fill="black"/>
<path d="M210.667 314.933C207.467 316.667 203.6 319.733 202.133 321.733C199.333 325.467 199.333 326.8 198.933 439.867L198.667 554.267L201.733 558.8C203.333 561.2 206.8 564.667 209.333 566.4C213.2 569.067 215.2 569.467 221.733 569.067C230.933 568.4 235.467 565.467 239.733 557.333L242.667 551.467V440.533V329.733L239.6 324C236.133 317.333 227.6 312 220.8 312C218.4 312 213.867 313.333 210.667 314.933Z" fill="black"/>
<path d="M333.333 313.467C331.467 314.133 328.533 316.133 326.933 317.733C319.733 324.4 320 319.067 320 441.467C320 554.533 320 555.067 322.8 559.6C330.8 572.4 351.467 572.267 360 559.2C362.533 555.467 362.667 551.867 362.667 441.2V327.067L359.733 322.667C358 320.267 355.067 317.067 353.067 315.6C348.933 312.533 338.267 311.333 333.333 313.467Z" fill="black"/>
<path d="M452 314.933C447.6 317.2 445.2 319.6 443.067 324L440 329.867V440.667V551.467L443.067 557.333C447.2 565.467 451.733 568.4 460.933 569.067C467.467 569.467 469.467 569.067 473.333 566.4C475.867 564.667 479.333 561.2 480.933 558.8L484 554.267L483.733 439.867C483.333 326.8 483.333 325.467 480.533 321.733C477.2 317.067 467.467 312 462 312C459.733 312 455.2 313.333 452 314.933Z" fill="black"/>
</g>
<defs>
<clipPath id="clip0_3_13">
<rect width="682.667" height="682.667" fill="white"/>
</clipPath>
</defs>
</svg>
